<svg id="Layer_1" data-name="Layer 1" xmlns="http://www.w3.org/2000/svg" viewBox="0 0 364.85 302.45"><defs><style>.cls-1{fill:#d40047;}.cls-2{fill:#ffd76a;}.cls-3{fill:#ffdff1;}.cls-4{fill:#7a0;}.cls-5{fill:#aac9ff;}.cls-6{fill:#ffaabf;}</style></defs><path class="cls-1" d="M346.77,294.05c-2.52-.27-3.44,2.26-4.51,3.74s-2.54,3.31-3.05,5.1c-.61,2.18.23,5,1.4,6.92,2,3.26,3.51,6.3,6.56,9,2.83,2.53,4.22,6.33,8.74,7a18.74,18.74,0,0,0,2.9,0,5.4,5.4,0,0,0,2.51-.64c.71-.3,1.66-.37,2.37-.7a21.56,21.56,0,0,0,3.38-2,26.62,26.62,0,0,0,4.82-3.9,31,31,0,0,1,2.48-2.8c2-1.82,3.91-3.68,6-5.43a16.3,16.3,0,0,0,2.41-2.09c.24-.32.3-.71.58-1s.64-.36.92-.65c.8-.84,1-3.18.63-4.22-.77-2.13-7.25-1.23-9.31-1.23h-5.27a33.08,33.08,0,0,1-5.54,0,7.56,7.56,0,0,1-1.85-1c-.69-.35-1.4-.52-2.13-.81-1.8-.72-3.71-1-5.41-1.69-.76-.31-1.77-.47-2.52-.82s-1.62-1-2.39-1.38a10.36,10.36,0,0,0-2-1A11.22,11.22,0,0,0,346.77,294.05Z" transform="translate(-43.88 -165.15)"/><path class="cls-1" d="M168.63,436.57c-.56.09-1.37,1.16-1.53,1.65a9.34,9.34,0,0,0,0,2.53c0,.93.09,1.3-.63,2s-1.26.85-1.39,1.77a9.92,9.92,0,0,0,.5,4.63c.2.55,1.06,1.3.44,2a9.59,9.59,0,0,1-2.55,1.24c-1,.25-1.92,0-2.92.4a4.15,4.15,0,0,0-1.86,1.38c-1,1.24-2.15,1.72-2.13,3.34s-.55,3.79.47,5a5.7,5.7,0,0,0,2.65,1.58c1,.24,2.09.6,3,.83a15,15,0,0,0,2.9.53,7.83,7.83,0,0,1,2,.43,19.79,19.79,0,0,0,7.08-.46c1-.21,2-.3,3-.49s1.68-.62,2.48-.77c.48-.09,1,0,1.5-.06a18.29,18.29,0,0,0,2.06-.66c1.06-.32,1.93-.71,3-1a17.54,17.54,0,0,0,5.64-3.16c.72-.54,1.92-1.06,2.29-1.86.19-.42,0-.74.07-1.16a14.13,14.13,0,0,0,.54-1.67,3.94,3.94,0,0,0-1.64-3.66c-.61-.54-1.3-1-1.9-1.57a13.84,13.84,0,0,1-2-2.72c-.62-.87-1.63-1-2.38-1.74s-1.25-1.72-2.25-2.33c-.69-.42-1.33-.81-2-1.25-1-.65-2.34-.82-3.32-1.46a28.6,28.6,0,0,0-5.24-2.72A7.8,7.8,0,0,0,168.63,436.57Z" transform="translate(-43.88 -165.15)"/><path class="cls-2" d="M125,424.45a7.46,7.46,0,0,0,0-1.7c-.11-.35-.45-.43-.56-.79-.3-1,.21-1.91-.48-3a5.36,5.36,0,0,0-1.48-1.44,19.87,19.87,0,0,0-2.13-1.38,14.47,14.47,0,0,0-2.8-.59c-.47-.1-.47-.27-1.1-.34a17.43,17.43,0,0,0-1.77,0,8.85,8.85,0,0,0-1.78,0c-.54.14-.41.34-.84.56-1.34.67-1.16.7-1.63,2-.12.35-.44.45-.54.79a6.93,6.93,0,0,0,0,1.7,4,4,0,0,0,.36,2.18,9.1,9.1,0,0,0,4,3.36c1.71.76,3.5,1.66,5.66,1.16a12.19,12.19,0,0,0,2.89-1.36c.56-.5.47-1.4,1.6-1.58" transform="translate(-43.88 -165.15)"/><path class="cls-2" d="M111.43,371c-1.33,0-3.05-.24-4.15.3a5.73,5.73,0,0,0-2.5,2.52c-.67,1.31-.26,1.82.51,3,.65,1,1.17,2,2.62,2.11s2.54.12,3.51-.68a8,8,0,0,0,2.08-2.41c.48-.85.85-2.3.21-3.2s-2-1.18-2.28-2.08" transform="translate(-43.88 -165.15)"/><path class="cls-2" d="M366.34,398.12c-1.35.39-2.06,1.8-3.49,2.11-1,.2-1.75-.14-2.56.6-.59.54-.48.94-.47,1.67,0,2.65,2.38,4.83,5.51,4.81a24.68,24.68,0,0,0,5-.08,3.39,3.39,0,0,0,2.54-4.14,6.8,6.8,0,0,0-2.52-3.09,8.34,8.34,0,0,0-1.82-1,14,14,0,0,0-2.12-.54l-.09-.33" transform="translate(-43.88 -165.15)"/><path class="cls-2" d="M380.89,348c-1,.83-1.95,1.68-2.9,2.53-.52.46-1.44,1-1.64,1.63s.17,1.71-.09,2.53a8.08,8.08,0,0,0-.39,2.51,2.43,2.43,0,0,0,.59,2.06,8.31,8.31,0,0,0,4.19,2,22.63,22.63,0,0,0,4.28.08,11.55,11.55,0,0,0,3-.09c2.36-.66,3-3.61,3-5.36s.34-3.4-.64-4.91a6.84,6.84,0,0,0-1.23-1.88c-.82-.69-1.42-.48-2.41-.71a29.67,29.67,0,0,1-4.75-1.26" transform="translate(-43.88 -165.15)"/><path class="cls-3" d="M146.05,259.77c0,.84,0,1.67,0,2.51a8.84,8.84,0,0,0,0,1.26c.07.45.3.6.41.92a16,16,0,0,0,2,4.08c1.07,1.66,1.39,3.36,2.27,5,.66,1.25,1.27,2.45,2,3.66,3.13,5.21,5.78,10.36,8.53,15.89a28.1,28.1,0,0,0,2.51,3.43,21.37,21.37,0,0,0,3,3.67c.66.58,1.19,1.23,1.87,1.79,1.06.87,1.57.78,1.52,2.08,0,.8.33,1,.53,1.65.11.41-.17.88,0,1.29s.44.65.53,1.23a6.6,6.6,0,0,0,.37,2.2c.17.32.15.6.48.86s.69.08,1.16.28c1.89.8,1.78,2.44,2.88,3.79a26.89,26.89,0,0,1,2.63,3.35c.31.53.81,1.49,1.48,1.68a17.51,17.51,0,0,0,3.54,0c1.9,0,2.84-1.33,4.12-2.39a4.84,4.84,0,0,0,1.91-5.14c-.21-1.45-2.11-1.8-2.92-3a5.89,5.89,0,0,1-.6-2.84,19.6,19.6,0,0,1,0-3.16c-.63,0-2.34-2.12-2.84-2.71a12.4,12.4,0,0,1-1.49-2.07c-.26-.52-.35-1.11-.61-1.68a3.4,3.4,0,0,0-1-1.33,6.85,6.85,0,0,1-.86-1.59,10.73,10.73,0,0,1-1-1.67,20,20,0,0,0-1.12-3c-.53-.95-1-1.86-1.49-2.82a9,9,0,0,1-.75-2c-.05-.14-.36-.27-.42-.49s.08-.71,0-1.06a18.8,18.8,0,0,0-1.46-4,4.39,4.39,0,0,0-.85-1.36c-.58-.43-1.48-.36-1.09.46-.88-2-3.08-3.11-3.08-5.35,0-1.3-.74-1.9-1.5-2.93a12.61,12.61,0,0,1-1.76-2.92,29.88,29.88,0,0,0-1.19-3.4c-.15-.29-.3-.63-.43-.89s-.41-.36-.53-.58a14.91,14.91,0,0,1-.34-1.62c-.18-.48-.44-1-.63-1.46-.32-.76-.2-.88-.88-1.28-.34-.21-.89-.19-1.18-.47-.56-.54-.06-1.33-1.07-1.62-.34-.1-.86.07-1.23,0a7,7,0,0,1-.77-.39,13.3,13.3,0,0,0-2.54-.85,18,18,0,0,0-5.44.08c-.13,1.08-1,1.8-1.53,2.69C146.81,258,145.87,259.64,146.05,259.77Z" transform="translate(-43.88 -165.15)"/><path class="cls-3" d="M215.8,243.89a11.81,11.81,0,0,0,.25,3.34,24.14,24.14,0,0,0,1.31,3.14c.46,1,1,1.77,1.44,2.71a23.06,23.06,0,0,0,1.66,2.91,40.54,40.54,0,0,1,2.87,6.07c.8,2.15,2.28,4,3.51,6.05.62,1,.5,2.1,1.07,3.11s.13,2.6,1,3.78c.64.89,1.81,1.26,2,2.32.11.8-.06,1,.46,1.77a11.2,11.2,0,0,1,1.42,2.09c.71,2,1.67,4.14,2.23,6.18.15.54.69,1,.84,1.5a5.6,5.6,0,0,0,.69,1.75c.59.88,1.31,1.72,2,2.59,1.3,1.64,1.5,3.52,2.87,5.12a7.16,7.16,0,0,1,1.29,1.79,13.51,13.51,0,0,1,.27,1.63,3.47,3.47,0,0,0,3,2.34,9.58,9.58,0,0,0,3.63-.32,10.11,10.11,0,0,1,1.36-.54c.86-.16,1.39.15,2.17-.28,2.24-1.27,2.37-3.73,2.37-5.76,0-.63,0-1.25,0-1.88a3.94,3.94,0,0,0-.39-1.33c-.18-.69-.28-1.33-.49-2-.28-.89-.69-1.65-1-2.5s.07-1.42-.08-2.12a8,8,0,0,0-.76-1.65c-.74-1.42-1.66-2.8-2.49-4.2-.39-.66-.15-1.16-.33-1.84a10.93,10.93,0,0,0-.95-1.82,23.56,23.56,0,0,1-2.39-4.48c-.49-1.49-1-2.94-1.51-4.39s-.47-2.7-1-4.05c-1.14-3-2.82-5.91-3.8-8.94a17.72,17.72,0,0,0-1.37-2.76,28.9,28.9,0,0,0-2.14-4.32c-1.25-1.71-2-3.66-3.06-5.43a11.91,11.91,0,0,0-3.56-4.19,30.25,30.25,0,0,0-4.28-2.39,17.07,17.07,0,0,0-2-1,11.36,11.36,0,0,0-2.54,0c-2.18.15-3.32,1.81-4.15,3.35a3.66,3.66,0,0,0-.36,1.89C216.79,241.77,216.11,242.53,215.8,243.89Z" transform="translate(-43.88 -165.15)"/><path class="cls-4" d="M355.8,290.28a3.2,3.2,0,0,0-1.9.54c-.47.2-1,.17-1.51.38a3.94,3.94,0,0,0-1.63,2,6.84,6.84,0,0,0,.06,3.12c.47.84,2,1.08,3,1.08,1.35,0,2.4.43,3.77.42s3-.29,3.77.41c.55.52.62,1.44,1.1,2a4,4,0,0,0,3.16,1.36,4.27,4.27,0,0,0,2.89-1.25c.59-.64.35-.63,1.25-.95a4.14,4.14,0,0,1,1.88-.32c.56,0,1.2-.07,1.76,0a12.77,12.77,0,0,1,1.47.45c.65.13,1.42-.17,2.06,0s.76.58,1.49.47c1.21-.19,1.23-1.78,1-2.56-.25-.94-1.11-1.51-1.89-2.16-1.59-1.33-3.18-2.63-4.78-4a8.17,8.17,0,0,0-2.77-1.46,12.41,12.41,0,0,0-4.13-.31h-4.27c-1.36,0-3.42-.32-4.68.07C356.86,289.63,356.83,289.75,355.8,290.28Z" transform="translate(-43.88 -165.15)"/><path class="cls-4" d="M138.53,445.34a15.89,15.89,0,0,1,3.91,1.78c.17.11.29.33.46.43a6.26,6.26,0,0,1,.85.34c.45.39.54,1,.91,1.53,1.44,1.94,2.18,4.43,3.28,6.48,1,1.81,3,3.93,5.25,4.4,3.48.7,3.45-4.42,3.4-6.18,0-.8-.2-1.05.73-1.27a11.61,11.61,0,0,1,2.28,0,4.36,4.36,0,0,0,3.76-1.88c1-1.14.74-2.17.76-3.56a4.51,4.51,0,0,0,0-1c-.08-.33-.62-.74-.53-1.08s1-.55,1.44-.91c1.13-.93,1.14-1.95,1.14-3.24,0-.54.27-1.65,0-2.12-.34-.64-1.25-.39-2-.38-1.73,0-3.22-.28-4.53.82-.91.77-1.61,1.7-2.62,2.42-2.61,1.85-6.41,2.26-9.8,1.68-1.74-.3-8.44-2.95-8.74.43C138.3,444,138.16,444.06,138.53,445.34Z" transform="translate(-43.88 -165.15)"/><path class="cls-5" d="M375.93,358.85c-.7-.05-.9.2-1.33.59a27.31,27.31,0,0,0-2.26,1.83c-.43.5-.71,1.1-1.1,1.63a8.32,8.32,0,0,0-1.22,2,10.53,10.53,0,0,0-.18,3.51c0,.33-.13.89.1,1.17s.53.26.77.38c.41.19.74.48,1.15.67s.74.17,1,.35.25.26.44.36a3.78,3.78,0,0,0,1.65.19,12.19,12.19,0,0,0,2.34-.09,15.89,15.89,0,0,0,2.68-.89c1.64-.63,3-2,4.3-3a4,4,0,0,1,2.88-1.11,8.49,8.49,0,0,1,3.2.24,14.39,14.39,0,0,0,2.11.77c.37.1.83.17,1.23.25a6.78,6.78,0,0,0,1.52.1,11,11,0,0,0,1.52,0,1.63,1.63,0,0,0,.72-.36c.21-.2.23-.4.43-.63.39-.45.92-.79,1.28-1.27a2.59,2.59,0,0,0,.62-1.57c0-.48,0-1,0-1.45s-.6-1-.72-1.57a5.37,5.37,0,0,1,.42-3.08,3.54,3.54,0,0,1,.66-1.1c.44-.42.94-.81,1.39-1.2.87-.75,1.82-1.47,2.64-2.22a5,5,0,0,0,1.48-2.44,4.12,4.12,0,0,0,.21-1.27,5.81,5.81,0,0,0,0-.59c-.05-.34-.13-.34-.43-.58s-.45-.49-.74-.68-.73-.4-1.06-.68a4.75,4.75,0,0,0-.89-.53,10.85,10.85,0,0,0-1.14-.7,5.14,5.14,0,0,0-1.88-.13c-1.37,0-2.84-.22-4.21-.36-.73-.07-2,.18-2.64-.13-.43-.21-.58-.69-.83-1s-.59-.72-.83-1.12a6.25,6.25,0,0,1-.52-1.89,6.65,6.65,0,0,0-.81-2.48,3.5,3.5,0,0,0-1.71-1.19c-.72-.19-1.38-.28-2.1-.4-2-.34-4.24-.77-6.07.26-1.15.64-2.56.66-3.47,1.61a5.79,5.79,0,0,0-1.59,4.21,4.67,4.67,0,0,1-.24,1.66c-.39,1.13-2.67,1.18-3.86,1.36-.72.11-1.45,0-2.15.13a11.89,11.89,0,0,0-2.22.68c-.82.31-1.74.56-2.52.93a5.13,5.13,0,0,0-2,2.07,5.19,5.19,0,0,0-.6,2.54,5.09,5.09,0,0,0,.09,2,4.28,4.28,0,0,0,1.42,1.42c.47.33.92.68,1.42,1s1.12.48,1.62.81a8.75,8.75,0,0,0,2.81,1.54,10.35,10.35,0,0,0,2,0,2.29,2.29,0,0,0,1.53-.9c.24-.27.29-.63.57-.88s.33-.19.47-.36a6.91,6.91,0,0,0,1.28-2.25,12.1,12.1,0,0,1,1.9-4.29c1-1.14,2.65-1.61,4.2-1.94.83-.18,1.65-.39,2.48-.55a24.3,24.3,0,0,1,4.27-.15,2.66,2.66,0,0,1,2.65,1.18,10.67,10.67,0,0,1,1.94,3.61,3.06,3.06,0,0,1-.39,2.88c-.32.49-.61,1-.94,1.47a3.51,3.51,0,0,1-1.68,1.2c-2.21,1-4.56,1-7,1a4.31,4.31,0,0,0-1.8.2,3.29,3.29,0,0,1-1.42.19,3.71,3.71,0,0,1-1.53-.13c-.29-.13-.49-.32-.8-.43A1,1,0,0,1,375.93,358.85Z" transform="translate(-43.88 -165.15)"/><path class="cls-5" d="M348.3,398.64c0,.39,0,.78,0,1.17,0,.56.51.7.81,1.17a4.65,4.65,0,0,0,2.94,2.13,10.72,10.72,0,0,0,4.75,0,8.24,8.24,0,0,0,1.52-.52,6.47,6.47,0,0,0,1.47-1.38,13.54,13.54,0,0,1,1.86-2.15,12,12,0,0,1,2.81-.91c1.74-.65,4-.39,4.86,1.11a11.1,11.1,0,0,1,.82,2.3,6.92,6.92,0,0,1,.43,1,12.85,12.85,0,0,1,0,1.86c0,.85.19,1.67-.46,2.38a6,6,0,0,1-4,1.6,4.8,4.8,0,0,1-2.4-.34,7,7,0,0,1-2-1.62,5.22,5.22,0,0,0-1-.81,4.29,4.29,0,0,0-1-.7c-.41-.14-.88,0-1.3-.08a4.15,4.15,0,0,0-.4-.16,4.49,4.49,0,0,0-.82,0h-2.82a3.23,3.23,0,0,0-1.93.93,12.38,12.38,0,0,0-1.27,1.1,16.19,16.19,0,0,0-2.12,3.14,4.56,4.56,0,0,0-.3,2.34,2.33,2.33,0,0,0,1.52,2,13,13,0,0,0,3.84-.14,23.1,23.1,0,0,1,4,0,4.11,4.11,0,0,1,3.35,1.37,6.07,6.07,0,0,0,1.3,1,17.41,17.41,0,0,0,1.94,1.32,4.57,4.57,0,0,0,2.18.24c.82,0,1.48.16,2.27.2,1.64.07,3.21-1.15,4.14-2.19s1.16-2.4,2.18-3.34a8,8,0,0,1,1-.88,6.55,6.55,0,0,1,.89-.27,10.37,10.37,0,0,0,1.22-.69,16.53,16.53,0,0,1,2.13-1c.36-.13.7-.32,1-.44s.7-.11,1-.22a3.85,3.85,0,0,0,1.87-2.89,5,5,0,0,0-.73-2.83,6.76,6.76,0,0,0-3.12-2.61,4.2,4.2,0,0,1-1-.59c-.37-.35-.68-.82-1.05-1.19a8.55,8.55,0,0,1-2-2.93,12.57,12.57,0,0,0-1.23-2.46,7.66,7.66,0,0,0-2.17-2,5.39,5.39,0,0,0-4.6-.84c-1.8.66-2.94,2-4.51,2.94-1.9,1.12-4.51.78-6.72.78h-3.2a6.56,6.56,0,0,0-2.85.62,6.75,6.75,0,0,0-2.12,1.53A3.38,3.38,0,0,0,348.3,398.64Z" transform="translate(-43.88 -165.15)"/><path class="cls-5" d="M108.61,422a14.24,14.24,0,0,0-2.61,0,17.68,17.68,0,0,0-1.7.83c-1.1.39-2.83.75-3.56,1.6a13.1,13.1,0,0,0-1.62,2.6c-.11.22-.19.58-.31.82s-.39.55-.44.71a4.36,4.36,0,0,0-.12,2.09c.39,1.19,2.11,2.19,3.37,2.58a5.58,5.58,0,0,0,1.82.27c1.1,0,2,.33,3.12.37s1.9.32,2.91.36a5.23,5.23,0,0,1,2.18.35,3.65,3.65,0,0,1,1.16.78c.6.66.59,1.46,1,2.1a6.55,6.55,0,0,0,2,2.24c1.33.81,2.79.6,4.42.61,3.76,0,6.29-2.33,9.15-3.85a10.28,10.28,0,0,1,4.21-1.17c1.75,0,2.68-1.22,4-2.07.16-.11.49,0,.66-.14a9.45,9.45,0,0,0,1-1,5,5,0,0,0,1-1.33c.43-.88,1.46-2.4.23-3.24-.21-.14-.64-.21-.89-.34s-.25-.28-.39-.37a21,21,0,0,0-2.18-1.08,34.43,34.43,0,0,1-3.68-1.61c-.94-.61-2.42-1.16-2.16-2.33.19-.88,2.4-1.75,3-2.51a3.58,3.58,0,0,0,.77-1.53c.06-.34,0-.65.07-1,0-.12.31-.25.36-.42a6.79,6.79,0,0,0-.56-4.25,4.58,4.58,0,0,0-2.37-1.95,16.06,16.06,0,0,0-3.53-1.38,30.28,30.28,0,0,0-4.76,0c-1.7,0-2.93,1-4.52,1.08a3,3,0,0,1-2.41-.63c-.17-.16-.33-.62-.48-.74s-.53,0-.68-.14a10.83,10.83,0,0,0-3.21-1.64,20.76,20.76,0,0,0-4.64-.44,2.58,2.58,0,0,0-1.7.44,5,5,0,0,0-1.62,1.45c-.8.93-2.17,1.52-2.94,2.49a6,6,0,0,0-.65,6,6.34,6.34,0,0,0,2.17,2.48c.12.09.39.24.55.34.53.36.59.25,1.19.44a5.33,5.33,0,0,1,.84.37c.16.09.71.64.83.69.63.21,2.29-.84,2.82-1.24,1.28-1,1.88-2.4,2.87-3.56a9.36,9.36,0,0,1,5.64-3,4.52,4.52,0,0,1,3.77.72c1.38,1,1.1,2.2,1.72,3.53.84,1.84,3.06,3.33,3,5.38,0,.81.14,1.29-.39,1.87-1.18,1.29-3.1,1.15-4.75,1.39-2,.3-4.49,2.33-6.5,1.07a6.63,6.63,0,0,1-1.59-1.81C112.62,424.06,111,423.74,108.61,422Z" transform="translate(-43.88 -165.15)"/><path class="cls-5" d="M101.72,373.9c-1.29,0-2.6-.06-3.88,0a4.05,4.05,0,0,0-2.9,1.55,5.35,5.35,0,0,0-.66,5.36A5.48,5.48,0,0,0,96,382.61a4.92,4.92,0,0,0,2.92.62c2.06,0,4.73-.33,5.82,1.42.2.31.18.74.42,1.09s.47.74.76,1.09a4.27,4.27,0,0,0,2.68,1.43c2.93.33,3.8-2.4,5.08-4,.59-.73.78-1.36,1.8-1.77a9.63,9.63,0,0,1,3.68-.36c.89,0,2.62.28,3.42,0,.56-.21.41-.48.72-.82s.7-.56.84-.92c.65-1.74-.62-4.28-2.06-5.5-.6-.51-1.76-.73-2.19-1.41s-.07-2.32-.08-3.16c0-1.64,1.36-3.4-.64-4.67a10.15,10.15,0,0,0-5.61-1.43c-2.65,0-5.31,0-8,0a22.34,22.34,0,0,0-3,.34,3.31,3.31,0,0,0-2.58,2.19c-.61,1.17-2,3.3-.87,4.47a8.59,8.59,0,0,0,2.28,1.16c.57.29.41.39,1.16.46a9.18,9.18,0,0,0,2,0c1.11-.17,2.21-1.12,3.31-1.37a3.94,3.94,0,0,1,3,.54c.79.47,1.12,1.44,1.55,2.11a4.18,4.18,0,0,1,.93,3c-.21,1.73-3.94,2.14-5.61,2.14a5.12,5.12,0,0,1-3.9-1.41A10.69,10.69,0,0,1,101.72,373.9Z" transform="translate(-43.88 -165.15)"/><path d="M240.1,428.27A189.45,189.45,0,0,1,209.92,424c-4.22-.9-8.39-2.05-12.56-3.18a61.18,61.18,0,0,1-8.57-3,92,92,0,0,1-32.95-24.61,38.24,38.24,0,0,1-9.45-30c1.09-11,6.62-19.44,12.81-27.82.94-1.27,2-2.46,2.91-3.75,2.15-3.05,2.17-4.73-.13-7.83-4.74-6.35-9.83-12.46-14.28-19-7.46-11-14.06-22.46-18.54-35a35.07,35.07,0,0,1-2-12.29c.09-8.52,4.68-13.58,12-16.18,9.31-3.33,18.08-2,26.11,4a68,68,0,0,1,13.11,13.56,240,240,0,0,1,24.62,40.55c1.66,3.41,4.51,6,6.26,9.3a3,3,0,0,0,2.9,1.56,22.42,22.42,0,0,0,5.14-.5A41.81,41.81,0,0,1,226.1,308c2.12-.16,2.51-1.17,1.46-2.84-5.43-8.63-10.93-17.23-16.28-25.91a106.75,106.75,0,0,1-8.66-18.35c-1.93-5.1-4.8-9.8-5.87-15.3a31.94,31.94,0,0,1-.07-13.24c1.18-5.29,5.43-7.36,9.86-8.66,3.82-1.13,7.92-1.39,11.93-1.8a17.41,17.41,0,0,1,8.43,1.44,11.59,11.59,0,0,0,1.59.69c10.43,2.33,16.12,10,20.94,18.61,3.31,5.91,7.4,11.36,10.1,17.61q5.85,13.47,11.78,26.91a32.06,32.06,0,0,0,1.79,3.44,13.39,13.39,0,0,1,2,5.63c.33,3.32,1.18,4.14,4.5,4.86,8.5,1.87,16.57,4.67,24,9.49a38.21,38.21,0,0,1,10.92,10.29c3.42,5,6.88,10,9.3,15.53,4,9.11,7,18.63,6.14,28.86-.29,3.44-.77,6.87-1,10.31-.4,6.3-4.41,10.85-7.54,15.79a113,113,0,0,1-9.57,12.25,14.23,14.23,0,0,1-3.88,3.41c-11.36,6.28-22.79,12.69-35.4,15.84C262.13,425.49,251.62,428.37,240.1,428.27Zm1.41-2.4a34.94,34.94,0,0,0,6.45-.67c5.49-1.13,11-2.36,16.55-3.08a40.75,40.75,0,0,0,10.79-3.07c6.22-2.67,12.43-5.34,18.54-8.28,8.28-4,16-8.44,20.92-16.72,1.3-2.19,2.86-4.31,4.26-6.47a42.17,42.17,0,0,0,6-33.37,75.58,75.58,0,0,0-10.75-25.76c-4.37-6.59-9-12.59-16.05-16.54-7.47-4.19-15.13-7.76-23.83-8.26-2-.11-2.39-1.26-2.63-2.77-.63-3.88-2.34-7.35-3.84-10.94-2.17-5.17-4.52-10.28-6.78-15.41-3.31-7.49-5.81-15.39-10.59-22.2a115.7,115.7,0,0,1-6-10.49c-4.31-7.78-9.8-14.24-19.08-16.22-7.63-1.62-14.85-.82-21.48,3.55a4.84,4.84,0,0,0-2.45,3.39,42,42,0,0,0-.24,12.47c.88,5.24,3.7,9.67,5.42,14.54a112.87,112.87,0,0,0,7.2,15.69c4,7.48,9.28,14.22,13,21.91a30.84,30.84,0,0,0,4.85,7.14c2.44,2.73,1.68,5.45-1.91,5.8-5.64.54-11,2.22-16.4,3.57a7.13,7.13,0,0,1-8-2.91c-3.09-4.16-6.27-8.32-8.15-13.21-2.7-7.06-6.95-13.25-10.75-19.69S178,265.25,173.67,259a51,51,0,0,0-12.61-12.86c-6.41-4.62-13.18-4.75-20.05-1.79-5.52,2.37-8.88,6.51-9.15,13a35.83,35.83,0,0,0,3.25,16.39,174.37,174.37,0,0,0,17.69,31.14c4.59,6.25,8.83,12.79,14.45,18.23a4.71,4.71,0,0,1,1.28,5.5,20.57,20.57,0,0,1-2.62,5.42c-1.91,2.53-3.7,5.16-5.69,7.62a42,42,0,0,0-8.93,21.14c-1.44,10,1.39,18.48,6.44,26.64,3.24,5.24,8.23,8.8,12.77,12.78,9.32,8.18,19.53,14.68,31.93,17.13,1.84.36,3.64.89,5.44,1.4C218.87,423.79,230.17,425,241.51,425.87Z" transform="translate(-43.88 -165.15)"/><path d="M133.07,421.72c2.11.85,3.85,1.49,5.54,2.24a5.86,5.86,0,0,1,2,9.58,8.79,8.79,0,0,1-8.6,2.93c-2.83-.52-4.69.09-6.48,2.62-2.7,3.82-7.33,4.83-11.64,3.33a4.26,4.26,0,0,1-3-3.88c-.21-2.31-1.58-2.8-3.54-2.77a42.57,42.57,0,0,1-5.18-.17c-5.9-.65-7.82-4.93-4.4-9.8a7.31,7.31,0,0,1,2.16-2.06c2-1.16,2-2.25.68-4.11-5.31-7.37.4-13,7.2-14.27,3.47-.66,6.87.44,10.06,1.85a7,7,0,0,0,5.77.27,14.7,14.7,0,0,1,8.95-.14c5.27,1.34,6.84,5.74,3.75,10.24C135.49,418.87,134.43,420,133.07,421.72Zm-18.6,6.73c-1.11-1.6-2.93-1.83-3.92-3-2.07-2.5-4.39-1.51-6.63-.55a5.75,5.75,0,0,0-2.9,5.37c.51,2.43,2.56,2.26,4.39,2.57C109.36,433.48,111.88,431.27,114.47,428.45ZM134,433.61a2.93,2.93,0,0,0,3.37-2.06c.57-1.75.46-3.41-1.13-4.64-2.41-1.87-5.32-2.06-8.15-2-1.85,0-3.69,2.84-2.77,3.86C127.66,431.33,130.34,433.42,134,433.61ZM116.45,411.7c-2.81-2.54-3.7-3-6.36-3.36a5.81,5.81,0,0,0-6.36,3.27,6.57,6.57,0,0,0,2,7c1.08.9,2.12,1.11,2.62-.52.92-2.94,3.23-4.25,5.83-5.3C114.81,412.55,115.42,412.2,116.45,411.7Zm11.36-1.85c-1.94-.06-3.86,0-4.57,2.26-.64,2.07.27,3.58,2.05,4.69a11.14,11.14,0,0,1,1.62,1.39c2.21,2.06,3.44,2,4.93-.42,1.06-1.74,1.84-3.69.77-5.67C131.61,410.28,129.73,409.91,127.81,409.85Zm-12.47,7.28c-2-.19-2.48,1-2.43,2.65.08,3.16,2.39,4.42,4.78,5.5s4.19.63,5-.87a4.75,4.75,0,0,0-1.58-5.73C119.38,417.4,117.35,417.33,115.34,417.13ZM123,435.27a10.25,10.25,0,0,0-2.07-5.52c-1.07-1.62-3.14-1.24-4,.56a12.28,12.28,0,0,0-1.52,6.15c.22,2.54,1.38,3.53,3.93,3.28C121.59,439.51,123,437.81,123,435.27Z" transform="translate(-43.88 -165.15)"/><path d="M369.43,361.64c-2-.76-4-1.49-6-2.31-3.47-1.45-4.45-2.85-4.38-6.1.08-3.41,1.13-6.21,4.65-7.53a12.6,12.6,0,0,1,6.37-.73c1.72.27,2.5-.35,3.09-2.07,2.74-8,11.28-10.31,18.07-5a3.54,3.54,0,0,1,1.74,2.82c0,2.61,1.56,3,3.72,2.92a41.7,41.7,0,0,1,6.89.34c5.23.76,6.59,4.27,3.46,8.64a12.19,12.19,0,0,1-4.95,4.07c-1.5.67-1.92,1.56-.79,3,2,2.54,1.56,5.26-.11,7.62a7.51,7.51,0,0,1-7.5,3.32l-.42-.09c-6.58-1-6.55-.89-12.39,1.4a15.21,15.21,0,0,1-11-.3c-2.78-1-3.36-3.06-2.45-6C367.92,364.2,369.3,363.33,369.43,361.64ZM392.78,355a16.58,16.58,0,0,0,3.5.42c2.78-.23,5.41-.83,6.9-3.66,1.61-3.06.92-4.69-2.44-5.12a31.3,31.3,0,0,0-4.75-.17c-3.59,0-3.57.11-3.23,3.76C392.9,351.79,392.78,353.36,392.78,355Zm-25.19-7.23a3.27,3.27,0,0,0-3.3,1.73c-.7,1.51-1.75,3.3-.84,4.83,1.59,2.7,4.64,3.34,7.43,3.62,2.61.25,1.45-2.6,2.32-3.87a5,5,0,0,0,.37-.77c1.56-3.38,1.29-4-2.3-4.8C370.17,348.26,369,348.07,367.59,347.78Zm13.81,11.39a6.51,6.51,0,0,0,7-6.47c.05-2.32-2.57-4.68-4.53-3.74-2.12,1-4.4,2-5.73,4.26C376.08,356.67,377.37,359.06,381.4,359.17ZM398,364c0-2.66-3.54-5.88-6.46-5.81-1.57,0-3.9,2.42-3.94,4-.05,2.52,3.33,5,7,5.13C397,367.47,398,366.45,398,364Zm-21.5,5.75a13.06,13.06,0,0,0,2.47-.32c2.64-.89,4.1-5.06,2.4-6.68-1.05-1-4.74-1.52-6.13-.72a6.14,6.14,0,0,0-3.48,5.07,2.09,2.09,0,0,0,1.7,2.2A25.21,25.21,0,0,0,376.52,369.78Zm5.57-24.23c.8,0,1.81.06,2.8,0,2.26-.16,3.29-1.26,3.46-3.5.16-2-1-2.82-2.73-3.17-1.12-.23-2.25-.38-3.38-.56-1.85-.3-2.94.64-3.68,2.22C376.71,344.47,377.56,345.76,382.09,345.55Z" transform="translate(-43.88 -165.15)"/><path d="M145.32,441.48c4.28,1.62,8.8.69,13.05-3.21,2.13-1.95,5.32-2.77,8.08-4,3.6-1.54,7.12-1.74,10.76.27,4.77,2.63,9.86,4.65,13.94,8.46a24.29,24.29,0,0,1,5.65,8c1.74,3.89,0,8-4.1,10.62a19.6,19.6,0,0,1-6.49,2.26c-5.35,1.11-10.72,2.06-16.07,3.12a20.55,20.55,0,0,1-14.62-2,13.45,13.45,0,0,0-2.71-1.29c-1.61-.46-3.53-.08-4.63-1.83-1.44-2.31-3-4.5-3.22-7.41-.25-3.42-.37-3.44-4-4.08a13.23,13.23,0,0,1-4.44-1.62c-2.81-1.65-2.72-4.37.14-6C138,442,141.13,441.48,145.32,441.48ZM165.51,464a15.47,15.47,0,0,0,3-.3c3.46-1,7-1.27,10.56-1.79a43,43,0,0,0,11.21-3c3.81-1.68,4.25-3.45,2.48-7.11-4.14-8.57-12.57-11.24-20.25-15a2.34,2.34,0,0,0-.85-.11c-2.19-.12-2.83.41-2.74,2.68.07,1.89.41,3.93-1.11,5.28s-1.41,2.74-.88,4.56c.91,3.16-.07,4.48-3.31,5.19a18.75,18.75,0,0,1-2.13.24c-3.47.39-3.42.48-3.91,3.81a3.37,3.37,0,0,0,2.15,4.1A11.51,11.51,0,0,0,165.51,464Zm-26.06-18.17a20.21,20.21,0,0,0,7.49,1.52c2.69.16,3.22.67,2.3,3.11a6.05,6.05,0,0,0,.69,5.67c.71,1.23,1.63,2.31,3,1.85,1.78-.58.8-2.07.6-3.27-.61-3.52.61-4.74,4.23-4.31.43.05.84.21,1.27.24,1.2.1,2.8,1.16,3.46-.34s-.93-2.18-2-2.89c-.24-.16-.53-.25-.75-.43-1.29-1.1-1.22-2.13.17-3,1.14-.74,2.5-.59,3.71-1,.85-.29,1.59-.82,1.23-1.9a1.48,1.48,0,0,0-1.75-.91c-2,.25-4.15.62-5.5,2.19-3.12,3.61-6.81,4.19-11.24,3.06A12.82,12.82,0,0,0,139.45,445.82Z" transform="translate(-43.88 -165.15)"/><path d="M338,303.88a13.74,13.74,0,0,1,10.73-13c2.52-.59,5.05-1.1,7.56-1.71,1.69-.4,3.34-.89,5.1-.41,2,.57,3.27-.43,4-2.25a13.85,13.85,0,0,1,1.4-2.67c1.19-1.65,3.24-2.1,5.43-1.32a3.61,3.61,0,0,1,2.63,4.32c-.43,3.76-.35,3.79,2.84,5.36a8.35,8.35,0,0,1,3,2.38c1.7,2.29,3.38,4.6,4.93,7a5.52,5.52,0,0,1-.08,6.13,17.18,17.18,0,0,1-4.1,5c-4.33,3.34-8.68,6.64-13.14,9.8a33,33,0,0,1-5,2.46c-4.53,2.12-8.79,1.77-13.12-.86C343.27,319.91,337.84,311.19,338,303.88Zm4.9.72a20.06,20.06,0,0,0,.76,4.63c1.41,5.12,4.88,8.58,8.78,11.93,2.91,2.49,5.67,3.22,9,1.52A80.84,80.84,0,0,0,379,310.24a7.33,7.33,0,0,0,2.55-6.2c-.21-2.32-1-2.89-3.37-2.51-1.42.23-2.93.85-4.23.56a7.6,7.6,0,0,0-6.07,1.14c-3.32,2-5.53,1.33-7.43-2.12-1-1.74-2.11-1.9-3.83-1.88-3,0-6.13.1-7.82-3.29-.67-1.35-1.72-.69-2.5,0C343.55,298.35,343.21,301.67,342.86,304.6Zm22.53-5.06c3.52-2.67,3.52-2.67,7.91-.93.54.21,1.07.44,1.62.6a2,2,0,0,0,2.28-.82c.67-.88.13-1.62-.44-2.3a5,5,0,0,0-2.76-2c-2.29-.44-3.53-2.46-5.33-3.4s-3.9,1.4-6.12,1a25.19,25.19,0,0,0-3-.44,6,6,0,0,0-4.7,1.79c-.63.63-1.27,1.33-1,2.26.38,1.16,1.45,1.3,2.49,1.23,1.77-.12,3.25-1.13,4.87-1.69,3.11-1.08,4.14-.23,3.78,3.07C365,298.54,364.83,299.11,365.39,299.54Z" transform="translate(-43.88 -165.15)"/><path d="M349.73,404.9c-.53-.48-.8-.87-1.17-1-4.45-1.93-3.48-6.39.15-8.87a13.45,13.45,0,0,1,9.81-2.53,6.48,6.48,0,0,0,5.59-1.41,11.77,11.77,0,0,1,5.52-2.3c4.52-.82,7.48.76,8.35,5.2.58,2.9,1.61,4.51,4.6,5.22,2.56.61,3.77,3.38,3.58,6.63-.15,2.8-1.8,5.2-4.59,5.44-3.18.27-4.55,1.67-5.75,4.58-2.43,5.91-11.47,6.59-15.16,1.3a2.38,2.38,0,0,0-3.2-1.08,18.25,18.25,0,0,1-7.27.66c-3.67-.35-5.29-3.11-3.72-6.46A57,57,0,0,1,349.73,404.9Zm3.95,8.75a8.87,8.87,0,0,0,5.58-1.92,2.6,2.6,0,0,0,1.21-2.16,4.75,4.75,0,0,0-6.43-3.65,7.28,7.28,0,0,0-3.17,3.41C349.46,412.1,350.54,413.73,353.68,413.65Zm15.05,3.55c2.63,0,4.14-1.45,4.07-3.79a4.62,4.62,0,0,0-4.46-4.3,4.37,4.37,0,0,0-4.31,4.35Q364.27,417.27,368.73,417.2Zm8.14-15.31c-.44.05-1.15.08-1.85.22-1.16.23-2.21.71-2.41,2-.18,1.14.6,1.82,1.45,2.4a12,12,0,0,0,6.05,1.8c1.39.12,2.05-.77,2.09-2.11C382.3,403.41,380.47,401.84,376.87,401.89Zm-20.79-6.31c-2.17.33-4.46.22-5.72,2.45a2,2,0,0,0,.33,2.38c.9,1.11,4.27,1.69,6.09,1.12s2.36-2.12,2.35-3.71C359.11,395.92,357.41,395.86,356.08,395.58Zm18.19.91c-.42-1.83-1.07-3.85-3.17-4.55s-3.89.47-5.39,1.83a1.36,1.36,0,0,0,.35,2.44,55.19,55.19,0,0,0,5.85,2.57C373.31,399.28,374.35,398.23,374.27,396.49Zm-10.95,6.57a2.45,2.45,0,0,0,3.39,3.17c1.57-.93,1.18-2.44.85-3.8a2.92,2.92,0,0,0-2.95-2.57C362.48,400,363.57,401.73,363.32,403.06Z" transform="translate(-43.88 -165.15)"/><path d="M105.87,362.84c2.58.59,5.58.12,8.71-.64,5.8-1.41,9.35,2.22,7.93,8-.46,1.9-.18,2.81,1.33,3.9,2.59,1.86,2.23,4.78,2.1,7.49a2.28,2.28,0,0,1-1.92,2.07,7.16,7.16,0,0,1-4.22-.13c-2.69-.93-2.72-.85-3.68,1.85-1.73,4.85-8.3,6.35-11.34,2.23a5.19,5.19,0,0,0-5.37-2.34,7.62,7.62,0,0,1-4.47-1.36c-3.53-2.1-3.85-6.27-.74-9,.92-.81,2.12-1.15,2.08-2.9C96.11,365.05,98.52,362.68,105.87,362.84Zm-4.36,9.41c1.39-.66,2.38-1.55,3.67-1.72s2.23-.65,1.83-2.21a2.6,2.6,0,0,0-2.63-2.31C100.81,365.9,99.92,367.52,101.51,372.25Zm16.62,3.08a2.1,2.1,0,0,0-2.2,2.08c.06,1.25,2.87,3.24,4.58,3.22a1.69,1.69,0,0,0,1.81-1.9C122.35,376.91,120.31,375.28,118.13,375.33Zm-.33-6.77c-.13-1.45-.24-3-2-3.39-1.38-.34-2.93,1.64-2.87,3.58,0,1.48.72,2.53,2.28,2.59C117.06,371.42,117.65,370.17,117.8,368.56ZM98.66,381.67c2,.12,4-1.42,4-2.9a2.21,2.21,0,0,0-2-2.37,3.4,3.4,0,0,0-3.62,3C97,380.62,97.5,381.57,98.66,381.67Zm13,2.07c.1-2-.52-3-1.85-3.06a2.59,2.59,0,0,0-2.59,2.81c.08,1.48.52,3.1,2.26,3.15C111.34,386.71,111.4,384.94,111.61,383.74Zm-2.12-10.3a2.29,2.29,0,0,0-2.61,2.14,1.62,1.62,0,0,0,1.28,1.88c.77.17,3.2-2.31,3-3S110.21,373.52,109.49,373.44Z" transform="translate(-43.88 -165.15)"/><path d="M214.31,242.7c-.06-4.82,3.6-8.09,8.47-7.78,2.71.17,4.82,1.57,7.07,2.93,5.22,3.14,9,7.14,9.58,13.5a7.43,7.43,0,0,0,1.2,2.75,122.66,122.66,0,0,1,11.31,27c1.38,4.73,3.71,9,5.36,13.6a12.38,12.38,0,0,1,.75,5.88,5.16,5.16,0,0,1-3.78,4.76,27.84,27.84,0,0,1-5.46,1.24c-3.23.3-6.12-.73-7.73-3.67-3.25-5.92-7-11.54-9.81-17.74-3-6.69-6.7-13.06-9.72-19.75a154.45,154.45,0,0,1-6.92-19.93A15.33,15.33,0,0,1,214.31,242.7Zm35.28,61a25,25,0,0,0,2.72-.65c1.46-.5,2.26-1.8,1.45-3-2.06-3.13-1.75-6.92-3.29-10.2a78.3,78.3,0,0,1-4.14-10.86,123.06,123.06,0,0,0-9.68-24.4,38.55,38.55,0,0,1-3.29-7.4c-1-3.36-4.38-5.19-7.24-7.13-1.92-1.31-4.19-2.76-6.34-1.32s-1.06,4.05-.55,6c1.06,4.16,2.59,8.21,3.82,12.3a86.13,86.13,0,0,0,7.79,17.67c2,3.5,3.76,7.1,5.46,10.76,2.42,5.19,5.47,10.09,8.3,15.09C245.63,302.34,247,303.76,249.59,303.66Z" transform="translate(-43.88 -165.15)"/><path d="M143.7,261.26c0-4.89,3.82-8.55,8.36-8.24,4.2.3,7.69,1.78,10.1,5.61,7.89,12.54,15.69,25.12,21.14,39,.62,1.59,2.17,2.31,2.91,3.66,2.22,4,4.43,8.07,6.34,12.24a5.73,5.73,0,0,1-2.48,7.11c-5.56,3.55-10.27,2.54-14.43-3.25-3.61-5-6.78-10.39-10.7-15.14-5.25-6.35-9.51-13.34-13.76-20.29-3.44-5.62-5.39-12-7.18-18.42A14.16,14.16,0,0,1,143.7,261.26Zm4.44,1.54a27.87,27.87,0,0,0,1.57,6.92c3.83,11.91,11.13,21.71,18.92,31.19A102.65,102.65,0,0,1,175,309.1c1.75,2.64,3.68,5.16,5.45,7.79a5.64,5.64,0,0,0,4.4,2.38c2.92.32,4.48-1.48,3.53-4.23a19.22,19.22,0,0,0-2.53-5c-3.78-5.16-6.26-11-8.88-16.75a303,303,0,0,0-14.55-27.93,63.72,63.72,0,0,0-4.54-6.83c-1.35-1.73-3.12-3.08-5.6-2.41-2.12.56-3.81,2.93-4,5.59C148.17,262,148.17,262.29,148.14,262.8Z" transform="translate(-43.88 -165.15)"/><path d="M281.26,406.89a4.23,4.23,0,0,1-4.57,1.24c-2.79-.68-5.59-1.33-8.34-2.14-2.11-.62-3.29-.15-3.6,2.18a6.65,6.65,0,0,1-3.44,5.2,2.1,2.1,0,0,1-2.43-.05c-.91-.72-.37-1.52,0-2.3,3.57-7.67.8-14.23-3.59-20.51a3.65,3.65,0,0,0-2.54-1.43q-2.55-.46-5.06-1.06c-1.38-.33-2.82-.64-3.34-2.27.75-1.27,1.89-1.19,3-.92,1,.22,1.91.68,2.89.85,5.64,1,6,1.76,8.5-3.55.66-1.44,1.64-2.57,3.33-1.53a2.12,2.12,0,0,1,.31,3.4c-3.8,3.88-2.65,7.28.61,10.68a2.8,2.8,0,0,1,.71,1.55c.35,4.64,3.92,6,7.47,7.27a26.7,26.7,0,0,0,7.1,1.71A2.92,2.92,0,0,1,281.26,406.89Z" transform="translate(-43.88 -165.15)"/><path d="M195.44,381.36c.43-.9.73-1.54,1-2.18.73-1.57,1.72-1.46,2.55-.2s1.39,2.67,2.95.54c.56-.77,1.44,0,1.38.76a8.28,8.28,0,0,0,2,5.92c1.23,1.66.76,3.6-.48,5.22-2.91,3.79-10,4.45-13.66,1.31-2.16-1.87-2.73-3.53-1.42-6.1a15,15,0,0,0,1.67-7c0-.82-.07-1.9,1.09-2s1.42.79,1.78,1.59C194.6,379.81,194.21,380.67,195.44,381.36Z" transform="translate(-43.88 -165.15)"/><path d="M291.09,360.24c3.26-2.88,3.65-4.05,5.29,1,1.15,0,1.23-1,1.6-1.75s.65-2.29,1.94-1.69c1.06.49.58,1.75.29,2.73a9.42,9.42,0,0,0-.61,4.18c.68,5-1.22,7.57-6,8.79a12.74,12.74,0,0,1-6.79-.47,3.72,3.72,0,0,1-2.64-3.57c-.4-3.93,1.84-7.15,3-10.64.32-.95,1.61-1.13,2.51-.12C290.13,359.25,290.24,360.1,291.09,360.24Z" transform="translate(-43.88 -165.15)"/><path d="M295.54,392.87c-.75,1.46-1.74,2.23-3.16,2a1.67,1.67,0,0,1-1.56-2.12c.46-1.48,1.83-1.6,3.17-1.38A1.7,1.7,0,0,1,295.54,392.87Z" transform="translate(-43.88 -165.15)"/><path d="M221.44,420c-1.1,0-1.81-.45-1.92-1.41-.18-1.46.79-2.06,2.07-2.11,1,0,2.29.15,2.38,1.31C224.11,419.47,222.61,419.75,221.44,420Z" transform="translate(-43.88 -165.15)"/><path d="M211.66,411.23c1,.14,2.26.1,2.2,1.45s-1.35,1.7-2.54,1.68-2.09-.5-2-1.76S210.66,411.34,211.66,411.23Z" transform="translate(-43.88 -165.15)"/><path d="M223.88,408.37c1.09.22,2.47.15,2.43,1.38-.05,1.48-1.49,1.85-2.76,2a1.47,1.47,0,0,1-1.74-1.42C221.71,408.78,222.89,408.58,223.88,408.37Z" transform="translate(-43.88 -165.15)"/><path d="M306.63,389.88a2.64,2.64,0,0,1-3.23,1.2,1.19,1.19,0,0,1-.78-1.7c.54-1.31,1.68-1.42,2.86-1.09A1.34,1.34,0,0,1,306.63,389.88Z" transform="translate(-43.88 -165.15)"/><path d="M302,396.87c.82.25,2,.24,1.84,1.41-.2,1.35-1.48,1.63-2.64,1.78a1.28,1.28,0,0,1-1.5-1.22C299.67,397.34,300.8,397,302,396.87Z" transform="translate(-43.88 -165.15)"/><path d="M170.27,460.73c-.91-.12-2.09,0-2.26-1.35-.15-1.2,2.48-3,4.27-3,1.13,0,2,.45,1.92,1.77C174.12,459.77,172.55,460.79,170.27,460.73Z" transform="translate(-43.88 -165.15)"/><path d="M185.88,456.59c-.1,1.33-1.2,1.59-2.38,1.64-1.76.08-2.95-.92-2.87-2.38a2,2,0,0,1,1.85-2A3.16,3.16,0,0,1,185.88,456.59Z" transform="translate(-43.88 -165.15)"/><path d="M181.08,445.79c-.19,1.49-.48,2.74-1.91,2.7a2.53,2.53,0,0,1-2.56-2.38,2.28,2.28,0,0,1,2.26-2.58C180.58,443.4,180.76,444.86,181.08,445.79Z" transform="translate(-43.88 -165.15)"/><path d="M177.54,452.31c-.12,1.42-.63,2.44-2,2.5s-2.69-.52-2.83-2,1.22-2.13,2.52-2.31S177.25,451.24,177.54,452.31Z" transform="translate(-43.88 -165.15)"/><path d="M186.29,453.54c-1.23-.36-2.63-.68-2.34-2.43a2.12,2.12,0,0,1,2.33-2.05c1.63.16,2.07,1.38,2.06,2.78S187.48,453.54,186.29,453.54Z" transform="translate(-43.88 -165.15)"/><path d="M369.9,306.75c.91.1,1.78.4,1.89,1.42a3.44,3.44,0,0,1-2.25,3.77c-1.71.71-3.07,0-4.17-1.33a1.29,1.29,0,0,1,0-1.59A7.64,7.64,0,0,1,369.9,306.75Z" transform="translate(-43.88 -165.15)"/><path d="M353.5,309.31c-.26,1.21-1.36,1.51-2.51,1.48-1.41,0-2.75-2-2.45-3.39a1.9,1.9,0,0,1,2.22-1.49A3.31,3.31,0,0,1,353.5,309.31Z" transform="translate(-43.88 -165.15)"/><path d="M361.82,307.9c0,2-.7,3-2.28,3.06-1.76,0-2-1.34-2-2.71a2,2,0,0,1,2-2.32A2,2,0,0,1,361.82,307.9Z" transform="translate(-43.88 -165.15)"/><path d="M355.31,314.46c1.63-.07,3.24,1.3,3.14,2.73-.08,1-.84,1.42-1.72,1.51a3.16,3.16,0,0,1-3.14-2.79C353.59,315.09,354.29,314.5,355.31,314.46Z" transform="translate(-43.88 -165.15)"/><path d="M366.23,315.74c.12,1.2-1.66,2.78-3.29,2.91-.76.06-1.45-.14-1.65-1-.31-1.28,1.25-2.92,2.94-3.1A1.68,1.68,0,0,1,366.23,315.74Z" transform="translate(-43.88 -165.15)"/><path class="cls-6" d="M80,331.05c-4.23.91-9.74,2.07-15.22,3.3a41.41,41.41,0,0,1-4.3.7,14.5,14.5,0,0,0-5.1,1,2.77,2.77,0,0,1-2.83-.19c-1.64-1.43-4.24-2.55-3.84-4.93s1.65-4,4.52-5c6.07-2.12,12.54-2.86,18.93-3.87,5.94-.94,11.92-1.66,17.89-2.45,2.32-.31,4.54.94,4.89,2.81.5,2.7.28,5.38-4.75,6.42C87.21,329.53,84.37,330.55,80,331.05Z" transform="translate(-43.88 -165.15)"/><path class="cls-6" d="M67.59,296.08a116,116,0,0,1,15.4-.61c6.79,0,10.42,4.68,7.47,9.64a3.52,3.52,0,0,1-3.14,1.74c-8,.26-16.09.6-24.14.8-2.91.07-3.31-.48-3-2.94a3.86,3.86,0,0,0-.1-1.31C58.81,298.26,60.74,296.27,67.59,296.08Z" transform="translate(-43.88 -165.15)"/><path class="cls-6" d="M49.25,298.59c3.62-.28,5.6,1,5.9,3.82.37,3.54-.77,5.13-3.8,5.31-4.34.25-7.14-1.08-7.43-3.53C43.55,300.92,45.49,298.88,49.25,298.59Z" transform="translate(-43.88 -165.15)"/><path class="cls-6" d="M86.9,262.66a21.79,21.79,0,0,0-.27,4.11c-.37,5.2-.7,10.4-2.25,15.51-.53,1.73-2.1,2.49-3.54,3.46a1.18,1.18,0,0,1-1.25,0c-1.5-1-3.11-1.88-3.58-3.56-.29-1-1.3-1.76-2-2.61a1.45,1.45,0,0,0-2-.2c-1.66,1.19-3.19.28-4.52-.28a2,2,0,0,1-1-2.75c.86-2.6-.16-4.83-2.05-6.9-.24-.27-.41-.67-.92-.6s-.51.52-.54.84c-.28,2.4-.53,4.79-.78,7.18,0,.23,0,.46,0,.69-.08,4.68-2.35,4.86-7.42,3.91-1.66-.31-1.83-1.63-1.62-2.85a75.46,75.46,0,0,0,1.37-10.23c.1-3,1.23-5.86,1.47-8.83a6.67,6.67,0,0,1,1.22-2.89c.65-1.07,1.68-1.09,2.83-.49.06,0,.09.1.15.12A13.51,13.51,0,0,1,67.77,262c.42.67,1,1.14,2,.1a3.8,3.8,0,0,1,4-.5,2.77,2.77,0,0,1,2,2.72c-.14,1.61-.43,3.27.49,4.83.24.4.38,1,1.12.83s.39-1,.74-1.34c1-.86,1.76-1.95,1.35-3.11-1.59-4.52.35-7.26,3.79-6.8C87,259.2,87.6,259.91,86.9,262.66Z" transform="translate(-43.88 -165.15)"/><path class="cls-6" d="M65.27,240.15a15.55,15.55,0,0,1,2.34-4.59c.28-.4.86-.92.16-1.33-1.18-.68-1.87-1.5-1.52-2.67A7.58,7.58,0,0,1,69,227.73c3.45-2.75,7.74-2.59,11.89-2.21,2,.18,4,.58,6.09.79a34,34,0,0,1,6.31,1.44,8.25,8.25,0,0,1,4.26,2.32c1.49,1.88.28,3.67-.31,5.43a18.51,18.51,0,0,1-1.72,3,2.48,2.48,0,0,1-2.11,1.15c-1.81,0-1.89.85-1.83,2.13.17,4.17-2.32,7.4-6.08,10.08A9.17,9.17,0,0,1,79,253.11a17.25,17.25,0,0,1-14-9.23A3.51,3.51,0,0,1,65.27,240.15Zm14.17,1.56c.55-.17,1.71.76,2.14-.34.33-.85-.6-1.5-1.65-1.85a1.79,1.79,0,0,0-2.31.91C77.14,241.44,78.54,241.25,79.44,241.71Z" transform="translate(-43.88 -165.15)"/><path class="cls-6" d="M119.22,189.38c.37.52.73,1.05,1.11,1.57,1.65,2.34,2.34,2.54,5.4,1.62,2.71-.82,4.46-.14,5.81,2.24s1.11,3.31-1.57,4.82c-2.07,1.16-2.18,2.15-1.06,3.88,1.73,2.64,3.83,5.12,5.26,7.91a1.94,1.94,0,0,1-.55,2.73c-1.94,1.69-4.54,2.53-7.06,3.44a1.88,1.88,0,0,1-2.11-.63,36.63,36.63,0,0,1-7.28-9.27c-.89-1.64-2-1.94-3.79-1.33l-.64.19c-3.92,1.2-5.66.68-6.74-2-1.28-3.18-.09-5.3,3.48-6.21,2.41-.61,2.56-.88,1.54-2.83-1.49-2.82-3.44-5.47-4.62-8.42-1.59-4-.51-5.33,3.32-7.49a36,36,0,0,1,6.92-2.57,8.57,8.57,0,0,1,7.56,1.12c1.89,1.26,3.76,2.5,4.76,4.43a2.48,2.48,0,0,1-.29,3.07,10.35,10.35,0,0,1-5,3c-1.94.55-3-.5-4.14-1.55-.61-.57-1.05-1.91-2.19-1.32-.79.42.38,1.36.77,2s.73,1.06,1.09,1.58Z" transform="translate(-43.88 -165.15)"/><path class="cls-6" d="M153,191.5c1.22-1.74,5.05-2.89,7.12-2.29s3,2,2.6,4.52c-.82,5.07-6.7,8.35-13,7.88-5.95-.45-9-3.1-11.07-7.22a22.66,22.66,0,0,1-1.71-3.89c-1.49-5.66-.4-7.85,5.72-10.88,4.37-2.16,9-3.1,13.89-1.18,3.47,1.34,3.84,3.84,3.61,6.44-.17,1.81-2.12,2.47-3.92,3.06a16.93,16.93,0,0,0-2.94,1.2C152.05,189.81,152,190.51,153,191.5Zm-5.16-4.65c1.06-.31,1.61-.77,1.12-1.56s-1.31-.54-2-.28-1.34.93-1,1.63S147.25,187,147.79,186.85Z" transform="translate(-43.88 -165.15)"/><path class="cls-6" d="M182.37,193.58a25.52,25.52,0,0,1-6.08.12,3.76,3.76,0,0,1-3.54-2.35c-2.63-5.5-3.3-11.41-5.4-17-.36-1,.34-1.7,1.44-1.91,3.81-.74,7.62-2,11.56-.45a1.5,1.5,0,0,0,1.34-.14,12.86,12.86,0,0,1,14.45,1.3c1.77,1.34,2.29,5.22,1,7.19s-4.52,3.25-7.33,2.87a3.39,3.39,0,0,1-1.94-.86,1.24,1.24,0,0,0-2.19.33c-.31.59-.89,1.22-.58,1.89.8,1.77.13,3.69,1.22,5.48s0,2.93-2.47,3.34C183.28,193.47,182.66,193.54,182.37,193.58Z" transform="translate(-43.88 -165.15)"/><path class="cls-6" d="M217.94,199.64a17.17,17.17,0,0,1-12-3.26c-2.45-1.75-2.81-4-2.56-6.34.11-1.16.86-2,2.46-2.19,2.47-.3,4.94-1,7.31.24,1,.54,1.45,1.56,2.84,1.84,1.91.38,2.71,0,2.71-1.53a16.56,16.56,0,0,0-.22-2c-.49-3.29-.49-3.29-4.49-3.66-4.32-.41-7.71-3.34-7.61-6.84,0-1.2-.53-2.39-.08-3.6,1.71-4.52,4.19-5.6,9.71-5.28,1.44.09,2.49.18,3.6-1,1.75-1.83,7.82-.75,8.84,1.45a34.62,34.62,0,0,1,2.65,11.31,50.12,50.12,0,0,1,0,8.31c-.16,2.6-2.19,4.76-3.37,7.11C225.87,198,222.87,199.44,217.94,199.64Z" transform="translate(-43.88 -165.15)"/><path class="cls-6" d="M242.68,173.32c.47-1.07,1.13-2.48,1.72-3.91a2.07,2.07,0,0,1,1.87-1.25c4.15-.59,7.2,1,9.88,3.24,1.35,1.12.79,2.42.13,3.66a7.34,7.34,0,0,0-1.21,3.12c0,.58,0,1.3.9,1.49s1.23-.48,1.52-1a17.55,17.55,0,0,0,1.54-3.06c.89-3.09,3.77-3.85,6.52-3.49,3.83.51,6.09,2.94,5.55,5.73s-1.18,5.51-1.94,8.24c-.42,1.5-1.53,2.81-2,4.36-.56,1.83-2.64,2.54-5,2.19s-4.87-.52-5.69-2.87c-.21-.61-.86-.48-1.4-.31-5.32,1.69-9.38-.55-13.36-2.82a3.65,3.65,0,0,1-1.68-3.06C239.7,180.07,240.91,176.83,242.68,173.32Z" transform="translate(-43.88 -165.15)"/><path class="cls-6" d="M296.77,194.35c1.18,2.5,2,4.61.17,6.8a12,12,0,0,1-8.59,4.81c-3.28.25-6-1.19-8.39-2.77-2.11-1.43-4-3.16-4.33-5.63-.23-1.76.77-3,2.18-4.14a4.45,4.45,0,0,1,4.76-.44,3.3,3.3,0,0,1,2,2.31c.16.61.23,1.33,1.27,1.48a1.34,1.34,0,0,0,1.43-.55c.73-1,.2-1.75-.93-2.67a7.27,7.27,0,0,0-1.84-1.07c-3.23-1.36-3.57-2.41-2.23-5.1,2.47-5,9.71-5.28,13.58-3,2.54,1.49,5.55,2.46,7.56,4.53,1,1,1.74,2.07.46,3.31-.53.51-.17,1.21-1,1.8C301,195.43,299.17,195.39,296.77,194.35Z" transform="translate(-43.88 -165.15)"/><path class="cls-6" d="M304.81,209a18.74,18.74,0,0,1,3.83-4.31c6.87-5.6,11.54-4.26,16.82-.18a8.74,8.74,0,0,1,2.55,2.8c1.2,2.47,2.61,5,.16,7.63-.31.33.12,1.07-.17,1.68-1.44,3.05-7.05,5.77-11.35,5.43-6.18-.5-12-5.14-12.85-10.1A4.05,4.05,0,0,1,304.81,209Zm13.48,3.26c.21-.58,1.17-1.36,0-1.68a2.67,2.67,0,0,0-3.05,1.2c-.33.59-1.5,1.57-.27,2C316.43,214.3,317.47,213.26,318.29,212.3Z" transform="translate(-43.88 -165.15)"/><path class="cls-6" d="M336.44,248.54c-3.22-2.29-3.14-4.88-.08-7.09a25.83,25.83,0,0,0,2-1.87.7.7,0,0,0,.12-1.06c-.37-.42-.92-.21-1.29,0-1.29.83-2.57,1.68-3.81,2.55a3.22,3.22,0,0,1-3.73.21c-2.32-1.3-4.63-2.59-6-4.66A1.77,1.77,0,0,1,324,234c3.6-3.17,6.3-6.93,10-10a6.57,6.57,0,0,0,1.61-2.17c.55-1.16,1.57-1.36,2.87-1a10.24,10.24,0,0,1,7,5.26,1.79,1.79,0,0,1-.63,2.59c-1.36.74-.39,1,.3,1.13,2.7.5,4.2,2.22,5.91,3.69,1.22,1.05,2.22,2.76,1.34,3.78-1.17,1.37.43,2.69-.81,3.93a9.78,9.78,0,0,0-.93,1.13,29.69,29.69,0,0,1-5.8,6C341,251,339.67,251.2,336.44,248.54Z" transform="translate(-43.88 -165.15)"/></svg>